<?xml version="1.0" encoding="utf-8"?><svg xmlns="http://www.w3.org/2000/svg" xmlns:xlink="http://www.w3.org/1999/xlink"><symbol fill="none" viewBox="0 0 52 39" id="header-logo" xmlns="http://www.w3.org/2000/svg"><path fill-rule="evenodd" clip-rule="evenodd" d="M36.593 5.016V3.454L4.125 6.348c-.442.046-.792.413-.792.85 0 .436.373.757.792.712l32.468-2.894zm-.676 19.04l1.679-.138c.49-.069.979-.207 1.422-.436.442-.23.839-.529 1.188-.873a4.66 4.66 0 00.816-1.218c.21-.482.303-.987.303-1.492 0-.506-.093-.988-.303-1.447a3.099 3.099 0 00-.816-1.08 3.365 3.365 0 00-1.189-.666 3.734 3.734 0 00-1.421-.184l-1.678.161v7.373zM23.821 14.8c0-.23.046-.46.14-.69.093-.206.21-.413.373-.573.163-.161.35-.299.559-.414.21-.115.443-.16.7-.183.232-.024.465 0 .675.068.21.07.396.161.56.299.163.138.28.322.372.505a1.727 1.727 0 010 1.356c-.093.206-.21.413-.373.574-.163.16-.35.298-.559.413-.21.115-.443.16-.676.184-.233.023-.466 0-.7-.07a1.636 1.636 0 01-.558-.298 1.589 1.589 0 01-.373-.505 1.626 1.626 0 01-.14-.666zm24.636-2.205c0-.23.047-.46.14-.69.093-.206.21-.412.373-.573.163-.161.35-.299.56-.414.21-.114.442-.16.699-.183.233-.023.466 0 .675.069.21.068.397.16.56.298.163.138.28.322.373.505.093.207.14.437.14.666 0 .23-.047.483-.14.69-.093.206-.21.413-.373.574-.163.16-.35.298-.56.413-.21.115-.442.16-.675.184a1.8 1.8 0 01-.7-.07 1.635 1.635 0 01-.559-.298 1.59 1.59 0 01-.373-.505 1.627 1.627 0 01-.14-.666zm-5.43-3.353v2.227l-.28-.091c-.793-.253-1.608-.529-2.401-.781-.443-.138-.63-.483-.63-.919V8.024l-35.59 3.17a4.296 4.296 0 01-.77 0h-.023v23.794c0 .437.373.758.792.712l35.592-3.17v-2.066c0-.46.233-.827.652-1.034.793-.39 1.585-.804 2.378-1.194l.303-.16v5.809c0 .919-.746 1.722-1.678 1.791L4.126 38.985c-1.073.092-2.145-.23-2.96-.965C.395 37.308 0 36.32 0 35.287V7.497C0 5.244 1.865 3.27 4.125 3.062L38.273.01c.42-.046.862.092 1.188.367.327.276.49.69.49 1.126v3.215l.886-.069c.582-.046 1.165.115 1.584.528.42.39.63.92.63 1.47l-.024 2.596zM33.12 27.639a.572.572 0 01-.63-.575V14.961c0-.758.63-1.424 1.375-1.493l3.706-.322c.63-.046 1.259-.046 1.888.092a7.358 7.358 0 011.702.551c.536.253 1.002.597 1.445.988.443.39.816.85 1.119 1.332.326.505.56 1.056.722 1.608.187.597.257 1.217.257 1.837 0 .643-.094 1.286-.257 1.884a7.674 7.674 0 01-.722 1.745c-.303.551-.7 1.056-1.12 1.539-.419.46-.908.873-1.444 1.24a9.112 9.112 0 01-1.702.873 6.609 6.609 0 01-1.888.413l-4.451.39zm17.27-1.47c-.046 0-.093 0-.116.023h-.116l-.956.092a.572.572 0 01-.63-.575v-8.842c0-.758.63-1.424 1.376-1.493l1.422-.138c.35-.023.629.23.629.574v8.843c0 .758-.63 1.424-1.375 1.493l-.233.023zm-24.636 2.205c-.046 0-.093 0-.116.023h-.117l-.955.091a.572.572 0 01-.63-.574V19.05c0-.758.63-1.424 1.375-1.493l1.422-.138c.35-.023.63.23.63.574v8.866c0 .758-.63 1.424-1.376 1.493l-.233.023zm-6.13-11.346c0 .023-.023.046-.023.092L15.29 28.259c-.093.206-.21.413-.373.597-.163.16-.326.299-.536.413-.21.092-.42.161-.653.184h-.093c-.21.023-.42 0-.63-.069a1.287 1.287 0 01-.535-.321 1.453 1.453 0 01-.373-.551c-1.305-3.124-2.587-6.248-3.893-9.348-.326-.781-.769-2.113-.28-2.894.257-.39.677-.551 1.12-.574.326-.023.629-.046.955-.092.396-.023.793-.07 1.189-.092.14-.023.303 0 .396.115.21.23 0 .964-.047 1.24-.07.322-.163.758-.046 1.08l2.214 5.81 2.727-7.648a.707.707 0 01.14-.299c.233-.482.7-.826 1.235-.872l1.632-.138h.046l.443-.046c.117 0 .28 0 .373.115.07.115.047.252.024.39v.023l-.7 1.746z" fill="#fff"/></symbol><symbol fill="none" viewBox="0 0 32 32" id="icon-acquiring" xmlns="http://www.w3.org/2000/svg"><path d="M24 15.518v6.325a1.124 1.124 0 01-.346.818 1.19 1.19 0 01-.841.339H7.23a1.25 1.25 0 01-.866-.346A1.178 1.178 0 016 21.819V11.755a.736.736 0 01.23-.535.777.777 0 01.551-.22h7.794"/><path d="M24.734 26H5.856c-.244 0-.486-.044-.711-.132a1.864 1.864 0 01-.603-.378 1.74 1.74 0 01-.402-.568 1.654 1.654 0 01-.14-.669V23h22.36v1.453a1.5 1.5 0 01-.475 1.088c-.304.29-.718.454-1.15.459zM16.838 6h11.198c.256 0 .5.096.682.266.18.17.282.4.282.641v6.949c0 .24-.102.471-.282.641a.996.996 0 01-.682.266h-11.59a.996.996 0 01-.682-.266.881.881 0 01-.282-.641V7.272c0-.168.035-.333.103-.488a1.27 1.27 0 01.294-.413 1.36 1.36 0 01.44-.275c.165-.064.341-.097.519-.096zm-1.356 3.111H29z"/></symbol><symbol fill="none" viewBox="0 0 32 32" id="icon-admin" xmlns="http://www.w3.org/2000/svg"><circle cx="16" cy="13" r="6"/><path d="M24 26c0-3.866-3.582-7-8-7s-8 3.134-8 7"/></symbol><symbol fill="none" viewBox="0 0 11 10" id="icon-arrow" xmlns="http://www.w3.org/2000/svg"><path d="M5.162 9l-4-4 4-4M2 5h8"/></symbol><symbol fill="none" viewBox="0 0 32 32" id="icon-bag" xmlns="http://www.w3.org/2000/svg"><path d="M10.667 7L8 10.6v12.6c0 .477.187.935.52 1.273.334.337.786.527 1.258.527h12.444c.472 0 .924-.19 1.257-.527.334-.338.521-.796.521-1.273V10.6L21.333 7H10.667zM8 11h16m-5 4a3 3 0 01-6 0"/></symbol><symbol fill="none" viewBox="0 0 32 32" id="icon-blacklist" xmlns="http://www.w3.org/2000/svg"><circle cx="16" cy="16" r="9"/><path d="M22.435 9.707L9.707 22.435"/></symbol><symbol fill="none" viewBox="0 0 24 24" id="icon-card" xmlns="http://www.w3.org/2000/svg"><path d="M21 9H3m0 9V6a1 1 0 011-1h16a1 1 0 011 1v12a1 1 0 01-1 1H4a1 1 0 01-1-1zm8-3H7h4z" stroke="#8D6BED" stroke-width="2" stroke-linecap="round" stroke-linejoin="round"/></symbol><symbol fill="none" viewBox="0 0 32 32" id="icon-chart" xmlns="http://www.w3.org/2000/svg"><path d="M5 24h22M7 18l2-3 4 2 3-4 4 2 5-7m0 0l.5 4M21 9l4-1"/></symbol><symbol fill="none" viewBox="0 0 24 24" id="icon-check" xmlns="http://www.w3.org/2000/svg"><path d="M7 12.571L10.428 16" stroke="#4F4F4F" stroke-width="2" stroke-linecap="round" stroke-linejoin="round"/><path d="M18.045 8.65a1 1 0 10-1.518-1.3l1.518 1.3zm-8.375 6.7a1 1 0 101.518 1.3l-1.518-1.3zm6.857-8l-6.857 8 1.518 1.3 6.857-8-1.518-1.3z" fill="#4F4F4F"/></symbol><symbol fill="none" viewBox="0 0 24 24" id="icon-check-green" xmlns="http://www.w3.org/2000/svg"><path d="M7 12.571L10.429 16" stroke="#00C8A4" stroke-width="2" stroke-linecap="round" stroke-linejoin="round"/><path d="M18.045 8.65a1 1 0 10-1.518-1.3l1.518 1.3zm-8.376 6.7a1 1 0 101.519 1.3l-1.519-1.3zm6.858-8l-6.858 8 1.519 1.3 6.857-8-1.518-1.3z" fill="#00C8A4"/></symbol><symbol fill="none" viewBox="0 0 12 12" id="icon-chevron" xmlns="http://www.w3.org/2000/svg"><path d="M3 4.5l3 3 3-3"/></symbol><symbol fill="none" viewBox="0 0 24 24" id="icon-close" xmlns="http://www.w3.org/2000/svg"><path d="M16.322 9.02c.375-.4.325-1.001-.113-1.344-.438-.342-1.098-.296-1.473.104l1.586 1.24zm-8.444 6.06c-.375.4-.324 1.001.114 1.344a1.115 1.115 0 001.473-.104l-1.587-1.24zm6.857-7.3l-6.857 7.3 1.587 1.24 6.857-7.3-1.586-1.24z" fill="#A6A6A6"/><path d="M7.878 9.02c-.375-.4-.324-1.001.114-1.344.438-.342 1.097-.296 1.473.104L7.878 9.02zm8.444 6.06c.375.4.325 1.001-.113 1.344-.438.343-1.098.296-1.473-.104l1.586-1.24zm-6.857-7.3l6.857 7.3-1.586 1.24-6.858-7.3 1.587-1.24z" fill="#A6A6A6"/><circle cx="12" cy="12" r="10.2" stroke="#A6A6A6" stroke-width="2"/></symbol><symbol fill="none" viewBox="0 0 25 25" id="icon-color-valet" xmlns="http://www.w3.org/2000/svg"><path d="M21.933 10.815c-.1-.6-.65-1-1.4-1h-.7c-.45-.05-.55.1-.55.45v5.2c0 .9-.9 1.85-1.95 2.05-3.3.75-6.6 1.45-9.9 2.2-.35.1-.75.1-1.15.1-.15 0-.4-.1-.45-.25-.05-.1.1-.3.2-.4.15-.1.35-.2.55-.3.6-.2 1.25-.4 1.85-.6 2.45-.8 4.9-1.6 7.35-2.45 1.1-.35 1.7-1.1 1.7-2.05.05-3 0-6.05 0-9.05 0-.5-.25-.9-.8-1.1-.65-.25-1.25-.05-1.8.2-3.5 1.65-6.95 3.3-10.45 4.95-1 .5-1.6 1.2-1.6 2.2v8.55c0 .15 0 .3.05.4.35.95 1.25 1.55 2.45 1.55h14.65c.55 0 1-.1 1.4-.45.5-.4.5-.95.5-1.45v-8.35c.1-.05.1-.25.05-.4zm-10.2-.9c.25-.65.8-1.05 1.6-1.15.55-.05 1 .25 1.1.75.1.75-.8 1.65-1.75 1.65-.75 0-1.2-.55-.95-1.25z" fill="#FC0"/></symbol><symbol fill="none" viewBox="0 0 32 32" id="icon-company" xmlns="http://www.w3.org/2000/svg"><path d="M10 9h12a1 1 0 011 1v14a1 1 0 01-1 1H10a1 1 0 01-1-1V10a1 1 0 011-1zm6 4a2 2 0 100 4 2 2 0 000-4zm3 7a3 3 0 00-6 0v1h6v-1zM18 7h-4v2h4V7z"/></symbol><symbol fill="none" viewBox="0 0 20 21" id="icon-doc" xmlns="http://www.w3.org/2000/svg"><path d="M12.5 11.333h-5M9.165 3h5.833a.833.833 0 01.834.833v13.334a.833.833 0 01-.834.833H5a.833.833 0 01-.833-.833V8l5-5zm-5 5h5V3l-5 5zm8.333 6.667h-5 5z" stroke="#8D6BED" stroke-width="1.5" stroke-linecap="round" stroke-linejoin="round"/></symbol><symbol viewBox="0 0 24 24" id="icon-download" xmlns="http://www.w3.org/2000/svg"><path fill-rule="evenodd" clip-rule="evenodd" d="M4 17c.55 0 1 .45 1 1v1h14v-1c0-.55.45-1 1-1s1 .45 1 1v2c0 .55-.45 1-1 1H4c-.55 0-1-.45-1-1v-2c0-.55.45-1 1-1zm12.574-4.996l-4 2.814A.998.998 0 0111.4 14.8l-4-3a.998.998 0 01-.2-1.4.999.999 0 011.4-.2l2.4 1.801V4a1 1 0 112 0v8a.145.145 0 01-.009.047.246.246 0 00-.009.039l2.443-1.718a1 1 0 111.15 1.636z"/></symbol><symbol fill="none" viewBox="0 0 24 24" id="icon-edit" xmlns="http://www.w3.org/2000/svg"><path d="M12 20h9M16.5 3.5a2.121 2.121 0 113 3L7 19l-4 1 1-4L16.5 3.5z" stroke="#8D6BED" stroke-width="2" stroke-linecap="round" stroke-linejoin="round"/></symbol><symbol fill="none" viewBox="0 0 32 32" id="icon-file" xmlns="http://www.w3.org/2000/svg"><path d="M14 24H8a1 1 0 01-1-1V8a1 1 0 011-1h9.59a1 1 0 01.7.29l3.42 3.42a1 1 0 01.29.7V15m3 7h-6m3-3v6-6z"/></symbol><symbol fill="none" viewBox="0 0 18 18" id="icon-logout" xmlns="http://www.w3.org/2000/svg"><path fill-rule="evenodd" clip-rule="evenodd" d="M11 1c0 .55-.45 1-1 1H2v14h8c.55 0 1 .45 1 1s-.45 1-1 1H1c-.55 0-1-.45-1-1V1c0-.55.45-1 1-1h9c.55 0 1 .45 1 1zm4.004 3.425l2.814 4A.998.998 0 0117.8 9.6l-3 4a.998.998 0 01-1.4.2.999.999 0 01-.2-1.4L15 10H7a1 1 0 110-2h8a.15.15 0 01.047.009.246.246 0 00.039.009l-1.718-2.443a1 1 0 111.636-1.15z" fill="#fff"/></symbol><symbol fill="none" viewBox="0 0 32 32" id="icon-money" xmlns="http://www.w3.org/2000/svg"><rect x="10" y="19" width="16" height="8" rx="1"/><circle cx="18" cy="23" r="4"/><path d="M7 20H5a1 1 0 01-1-1v-6a1 1 0 011-1h14a1 1 0 011 1v3m-4 0a4 4 0 10-7.68 1.572M23 13h2a1 1 0 001-1V6a1 1 0 00-1-1H11a1 1 0 00-1 1v3m4 0a4 4 0 117.68 1.572"/></symbol><symbol fill="none" viewBox="0 0 32 32" id="icon-operations" xmlns="http://www.w3.org/2000/svg"><path d="M22 18l3 3-3 3m2-3h-9m-4 0h-1m0-7l-3-3 3-3m-2 3h9m4 0h1"/></symbol><symbol fill="none" viewBox="0 0 20 20" id="icon-plus" xmlns="http://www.w3.org/2000/svg"><path d="M10 4.167v11.666M4.167 10h11.666" stroke="#fff" stroke-width="1.5" stroke-linecap="round" stroke-linejoin="round"/></symbol><symbol fill="none" viewBox="0 0 20 21" id="icon-purple-download" xmlns="http://www.w3.org/2000/svg"><path d="M12.5 12.167l-2.5 2.5-2.5-2.5m-4.166 2.5v2.5a.833.833 0 00.833.833h11.667a.833.833 0 00.833-.833v-2.5m-6.666 0V3v11.667z" stroke="#8D6BED" stroke-width="1.5" stroke-linecap="round" stroke-linejoin="round"/></symbol><symbol fill="none" viewBox="0 0 24 25" id="icon-qiwi" xmlns="http://www.w3.org/2000/svg"><path d="M18.288 15.14c.373.16.534.693.534.96.053.427-.054.64-.214.64s-.373-.16-.587-.533c-.213-.374-.32-.747-.213-.96.16-.107.32-.16.48-.107zM16.1 16.794c.214 0 .48.106.747.32.427.373.587.8.374 1.12-.107.16-.374.267-.587.267-.267 0-.534-.107-.694-.267-.427-.373-.533-.907-.267-1.227.054-.107.214-.213.427-.213z" fill="#F28A1A"/><path d="M11.031 21.009C5.482 21.009 1 16.527 1 11.03 1 5.535 5.482 1 11.031 1a10.02 10.02 0 0110.031 10.031c0 1.868-.533 3.628-1.387 5.122-.053.054-.107.054-.107-.053-.373-2.455-1.867-3.788-4.002-4.215-.213-.054-.213-.16.054-.16.693-.054 1.6-.054 2.134.053.053-.267.053-.534.053-.747 0-3.628-2.988-6.616-6.616-6.616-3.628 0-6.616 2.988-6.616 6.616 0 3.628 2.988 6.616 6.616 6.616h.32a6.786 6.786 0 01-.106-1.814c0-.427.106-.48.266-.16.907 1.6 2.241 2.988 4.803 3.575 2.08.48 4.161 1.014 6.456 3.842.213.267-.107.533-.32.32-2.295-2.028-4.376-2.721-6.297-2.721-2.4.053-3.841.32-5.282.32z" fill="#F28A1A"/></symbol><symbol fill="none" viewBox="0 0 16 16" id="icon-search" xmlns="http://www.w3.org/2000/svg"><circle cx="8" cy="7" r="5"/><path d="M11.414 11L14 13.586"/></symbol><symbol viewBox="0 0 32 32" id="icon-settings" xmlns="http://www.w3.org/2000/svg"><path fill-rule="evenodd" clip-rule="evenodd" d="M15.297 25h1.407v-.863c0-1.052.647-1.997 1.647-2.41 1.035-.43 2.166-.219 2.91.53l.607.609.999-1-.613-.611c-.746-.745-.956-1.874-.537-2.877l.001-.002.013-.032c.41-.993 1.355-1.64 2.407-1.64H25v-1.407h-.862c-1.052 0-1.998-.647-2.41-1.647-.433-1.035-.22-2.166.53-2.912l.608-.606-.998-.998-.613.613c-.745.745-1.873.955-2.876.537-1.027-.424-1.675-1.37-1.675-2.421V7h-1.407v.863c0 1.052-.647 1.997-1.647 2.41-1.034.433-2.165.22-2.91-.53l-.607-.609-.999 1 .613.611c.745.745.957 1.874.537 2.877-.423 1.027-1.37 1.675-2.421 1.675H7v1.406h.863c1.052 0 1.998.647 2.41 1.647.433 1.035.22 2.166-.53 2.912l-.608.606.998.998.613-.613c.745-.745 1.873-.955 2.876-.537 1.027.424 1.675 1.37 1.675 2.421V25zm1.74 2h-2.08a1.846 1.846 0 01-1.845-1.844v-1.2c0-.161-.128-.273-.25-.322-.158-.065-.327-.078-.444.035l-.847.848a1.852 1.852 0 01-2.614 0l-1.474-1.474a1.837 1.837 0 01-.542-1.309 1.84 1.84 0 01.545-1.308l.845-.841c.115-.116.103-.285.052-.407-.066-.162-.176-.29-.34-.29H6.852c-1.02 0-1.851-.83-1.851-1.85v-2.082c0-1.017.827-1.843 1.845-1.843h1.199c.161 0 .272-.13.322-.251.066-.159.08-.33-.035-.444l-.848-.847a1.854 1.854 0 010-2.614l1.474-1.474c.35-.35.813-.542 1.306-.542h.003c.494 0 .959.193 1.308.544l.841.846c.116.116.286.103.408.052.16-.068.29-.178.29-.34V6.852c0-1.02.83-1.851 1.85-1.851h2.082c1.016 0 1.844.827 1.844 1.844v1.2c0 .161.128.272.25.322.159.066.328.08.444-.035l.847-.848a1.852 1.852 0 012.614 0l1.476 1.475c.35.348.54.813.54 1.308 0 .492-.193.958-.544 1.306l-.846.843c-.115.116-.103.285-.051.407.066.162.176.29.338.29h1.193c1.02 0 1.85.83 1.85 1.85v2.082a1.844 1.844 0 01-1.844 1.843h-1.199c-.161 0-.272.13-.322.251l-.015.037c-.05.122-.064.292.05.407l.848.847c.72.722.72 1.895 0 2.614l-1.474 1.474c-.35.35-.813.541-1.306.541h-.003c-.494 0-.959-.192-1.308-.543l-.841-.846c-.115-.115-.287-.102-.408-.052-.16.068-.29.178-.29.34v1.192c0 1.02-.83 1.851-1.85 1.851zM16 14c-1.103 0-2 .897-2 2s.897 2 2 2 2-.897 2-2-.897-2-2-2zm0 6c-2.206 0-4-1.794-4-4s1.794-4 4-4 4 1.794 4 4-1.794 4-4 4z"/></symbol><symbol fill="none" viewBox="0 0 8 5" id="icon-shevrone" xmlns="http://www.w3.org/2000/svg"><path d="M1 1l3 3 3-3"/></symbol><symbol fill="none" viewBox="0 0 24 24" id="icon-trash" xmlns="http://www.w3.org/2000/svg"><path d="M3 6h18M8 6V4a2 2 0 012-2h4a2 2 0 012 2v2m3 0v14a2 2 0 01-2 2H7a2 2 0 01-2-2V6h14z" stroke="#FA5959" stroke-width="2" stroke-linecap="round" stroke-linejoin="round"/></symbol><symbol fill="none" viewBox="0 0 32 32" id="icon-user" xmlns="http://www.w3.org/2000/svg"><circle cx="13" cy="13" r="5"/><path d="M26 22c0-3-3.015-5-5.5-5m.043-6.913c.26-.057.532-.087.81-.087C23.367 10 25 11.567 25 13.5S23.367 17 21.353 17A3.77 3.77 0 0120 16.751M20 24c0-3.314-3.134-6-7-6s-7 2.686-7 6"/></symbol><symbol viewBox="0 0 32 32" id="icon-valet" xmlns="http://www.w3.org/2000/svg"><path d="M25 13v10c0 1-1 2-2 2H9c-1 0-2-1-2-2l.005-8.905v-1.6L7 9c.005-1 1-2 2-2h12c.75 0 2 1.286 2 2v2c1 0 2 1 2 2zM9 10c0 .571.5 1 1 1h11v-1c0-.5-.5-1-1-1H10c-.5 0-1 .429-1 1zm14 4c0-.5-.5-1-1.004-1H10c-.5 0-1 .5-1 1v8c0 .5.5 1 1 1h12c.5 0 1-.5 1-1v-8z"/><circle cx="20" cy="18" r="1"/></symbol><symbol fill="none" viewBox="0 0 24 24" id="icon-valet-mass" xmlns="http://www.w3.org/2000/svg"><path d="M21.6 10.315c-.1-.6-.65-1-1.4-1h-.7c-.45-.05-.55.1-.55.45v5.2c0 .9-.9 1.85-1.95 2.05-3.3.75-6.6 1.45-9.9 2.2-.35.1-.75.1-1.15.1-.15 0-.4-.1-.45-.25-.05-.1.1-.3.2-.4.15-.1.35-.2.55-.3.6-.2 1.25-.4 1.85-.6 2.45-.8 4.9-1.6 7.35-2.45 1.1-.35 1.7-1.1 1.7-2.05.05-3 0-6.05 0-9.05 0-.5-.25-.9-.8-1.1-.65-.25-1.25-.05-1.8.2-3.5 1.65-6.95 3.3-10.45 4.95-1 .5-1.6 1.2-1.6 2.2v8.55c0 .15 0 .3.05.4.35.95 1.25 1.55 2.45 1.55h14.65c.55 0 1-.1 1.4-.45.5-.4.5-.95.5-1.45v-8.35c.1-.05.1-.25.05-.4zm-10.2-.9c.25-.65.8-1.05 1.6-1.15.55-.05 1 .25 1.1.75.1.75-.8 1.65-1.75 1.65-.75 0-1.2-.55-.95-1.25z" fill="#E47418"/></symbol><symbol fill="none" viewBox="0 0 25 25" id="icon-vidi" xmlns="http://www.w3.org/2000/svg"><path fill-rule="evenodd" clip-rule="evenodd" d="M17.223 6.046v-.721L2.236 6.661a.403.403 0 00-.365.392c0 .201.172.35.365.329l14.986-1.336zm-.312 8.788l.774-.064c.226-.032.452-.095.656-.201.205-.106.388-.244.549-.403.161-.17.28-.36.377-.562.096-.223.14-.456.14-.69 0-.232-.044-.455-.14-.667a1.43 1.43 0 00-.377-.498 1.554 1.554 0 00-.549-.308 1.723 1.723 0 00-.656-.084l-.774.074v3.403zm-5.584-4.272a.868.868 0 01.237-.583c.075-.075.162-.138.258-.191a.807.807 0 01.323-.085c.108-.01.215 0 .312.032a.755.755 0 01.258.138c.075.063.13.148.172.233a.802.802 0 010 .625.87.87 0 01-.172.265 1.157 1.157 0 01-.258.191.805.805 0 01-.312.085.838.838 0 01-.323-.032.755.755 0 01-.258-.138.733.733 0 01-.172-.233.75.75 0 01-.065-.307zm11.371-1.018a.869.869 0 01.237-.583c.075-.074.161-.138.258-.19a.806.806 0 01.323-.086c.107-.01.215 0 .312.032a.754.754 0 01.258.138.739.739 0 01.172.233.8.8 0 010 .625.869.869 0 01-.172.266 1.156 1.156 0 01-.258.19.804.804 0 01-.312.085.838.838 0 01-.323-.032.754.754 0 01-.258-.137.733.733 0 01-.172-.234.75.75 0 01-.065-.307zm-2.506-1.548v1.029l-.13-.043c-.365-.116-.742-.244-1.108-.36-.204-.064-.29-.223-.29-.424v-.763L2.237 8.897a1.914 1.914 0 01-.355 0h-.01V19.88c0 .202.172.35.365.329l16.427-1.463v-.954c0-.212.108-.381.301-.477.366-.18.732-.37 1.098-.551l.14-.074v2.682a.844.844 0 01-.775.826l-17.19 1.527a1.798 1.798 0 01-1.367-.445 1.701 1.701 0 01-.538-1.262V7.191c0-1.04.86-1.95 1.904-2.046l15.76-1.41a.74.74 0 01.549.17.67.67 0 01.226.519v1.484l.408-.032a.923.923 0 011.022.922l-.01 1.198zm-4.572 8.491a.264.264 0 01-.29-.265v-5.586c0-.35.29-.657.634-.69l1.71-.148c.29-.02.581-.02.872.043.269.053.538.138.785.254.247.117.463.276.667.456.204.18.377.392.516.615.15.233.259.487.334.742.086.276.118.562.118.848 0 .297-.043.594-.118.87a3.54 3.54 0 01-.334.805 4.16 4.16 0 01-.516.71c-.194.212-.42.403-.667.572a4.206 4.206 0 01-.785.403c-.28.106-.57.17-.872.191l-2.054.18zm7.971-.678c-.021 0-.043 0-.054.01h-.054l-.44.043a.264.264 0 01-.291-.265v-4.081c0-.35.29-.658.635-.69l.656-.063c.161-.01.29.106.29.265v4.081c0 .35-.29.658-.634.69l-.108.01zm-11.37 1.018c-.022 0-.044 0-.055.01h-.053l-.441.043a.264.264 0 01-.29-.265v-4.092c0-.35.29-.657.634-.69l.656-.063c.162-.01.29.106.29.265v4.092c0 .35-.29.657-.634.689l-.108.01zM9.39 11.59c0 .01-.01.021-.01.042l-1.99 5.141a1.107 1.107 0 01-.173.276c-.075.074-.15.138-.247.19a.98.98 0 01-.302.086h-.043a.683.683 0 01-.71-.435c-.602-1.442-1.194-2.883-1.796-4.314-.15-.36-.355-.976-.13-1.336.12-.18.313-.254.517-.265.15-.01.29-.021.441-.042.183-.01.366-.032.549-.043.064-.01.14 0 .183.053.097.106 0 .446-.022.573-.032.148-.075.35-.021.498l1.022 2.682 1.258-3.53a.326.326 0 01.065-.138.709.709 0 01.57-.403l.753-.063h.022l.204-.022c.054 0 .129 0 .172.053.032.053.022.117.01.18v.011l-.322.806z" fill="#fff"/></symbol><symbol fill="none" viewBox="0 0 20 20" id="icon-x" xmlns="http://www.w3.org/2000/svg"><path d="M15 5L5 15M5 5l10 10" stroke="#A6A6A6" stroke-width="2" stroke-linecap="round" stroke-linejoin="round"/></symbol></svg>